<?xml version="1.0" encoding="UTF-8"?>
<svg width="700pt" height="700pt" version="1.1" viewBox="0 0 700 700" xmlns="http://www.w3.org/2000/svg" xmlns:xlink="http://www.w3.org/1999/xlink">
 <g>
  <path d="m420.47 33.805c-45.598-0.078126-89.438 17.602-122.22 49.293s-51.941 74.906-53.41 120.48c-1.4688 45.574 14.867 89.93 45.543 123.67l-27.996 27.988-14.684-14.684v0.003906c-1.6406-1.6406-3.8633-2.5664-6.1875-2.5664-2.3203 0-4.543 0.92578-6.1836 2.5664l-117.93 117.92c-9.6211 9.6758-13.363 23.746-9.8203 36.926 3.543 13.176 13.84 23.469 27.02 27.016 13.176 3.543 27.246-0.20312 36.922-9.8242l117.92-117.92c1.6406-1.6406 2.5664-3.8633 2.5664-6.1836 0-2.3242-0.92578-4.5469-2.5664-6.1875l-14.688-14.688 27.996-27.992c28.297 25.609 64.168 41.301 102.18 44.703 38.016 3.4023 76.102-5.6719 108.5-25.848 32.395-20.18 57.336-50.359 71.043-85.977 13.711-35.617 15.445-74.734 4.9414-111.43-10.508-36.688-32.68-68.957-63.16-91.922-30.484-22.965-67.617-35.375-105.79-35.348zm-261.32 466.41c-5.2461 5.25-12.891 7.2969-20.059 5.3789-7.168-1.9219-12.766-7.5195-14.688-14.684-1.9219-7.168 0.12891-14.816 5.375-20.062l111.74-111.73 29.375 29.367zm261.32-132.46c-41.965 0-82.207-16.672-111.88-46.344-29.672-29.676-46.344-69.918-46.344-111.88s16.672-82.211 46.344-111.88c29.676-29.676 69.918-46.344 111.88-46.344s82.211 16.668 111.88 46.344c29.676 29.672 46.344 69.918 46.344 111.88-0.046874 41.949-16.73 82.168-46.395 111.83-29.664 29.664-69.883 46.348-111.83 46.398z"/>
  <path d="m518.5 111.5c-30.48-30.488-73.402-45.062-116.14-39.438s-80.434 30.812-101.99 68.145c-21.555 37.332-24.52 82.566-8.0234 122.39s50.582 69.719 92.223 80.871c41.641 11.156 86.102 2.3125 120.3-23.934 34.199-26.246 54.246-66.906 54.242-110.02 0.09375-36.785-14.527-72.082-40.609-98.023zm-12.371 183.71c-26.633 26.637-64.141 39.375-101.49 34.461-37.348-4.9102-70.285-26.914-89.125-59.535-18.84-32.621-21.434-72.148-7.0234-106.95 14.414-34.805 44.191-60.926 80.578-70.68 36.383-9.7539 75.234-2.0312 105.12 20.898 29.887 22.93 47.41 58.453 47.418 96.121 0.085938 32.152-12.688 63.004-35.48 85.684z"/>
  <path d="m497.87 162.92c-9.3242-18.422-25.629-32.352-45.281-38.684-4.5977-1.4961-9.5352 1.0195-11.031 5.6133-1.4961 4.5977 1.0195 9.5352 5.6133 11.031 15.219 4.9492 27.844 15.738 35.105 29.996 7.2578 14.258 8.5547 30.816 3.6055 46.027-1.4883 4.5977 1.0234 9.5273 5.6172 11.02 4.5898 1.4961 9.5273-1.0117 11.027-5.6016 6.4336-19.629 4.7578-41.016-4.6562-59.402z"/>
  <use x="70" y="691.25" xlink:href="#n"/>
  <use x="102.109375" y="691.25" xlink:href="#c"/>
  <use x="123.683594" y="691.25" xlink:href="#a"/>
  <use x="153.355469" y="691.25" xlink:href="#i"/>
  <use x="182.878906" y="691.25" xlink:href="#h"/>
  <use x="203.792969" y="691.25" xlink:href="#a"/>
  <use x="233.464844" y="691.25" xlink:href="#b"/>
  <use x="280.011719" y="691.25" xlink:href="#g"/>
  <use x="311.328125" y="691.25" xlink:href="#f"/>
  <use x="355.078125" y="691.25" xlink:href="#e"/>
  <use x="388.425781" y="691.25" xlink:href="#m"/>
  <use x="403.421875" y="691.25" xlink:href="#d"/>
  <use x="433.480469" y="691.25" xlink:href="#l"/>
  <use x="464.796875" y="691.25" xlink:href="#a"/>
  <use x="494.46875" y="691.25" xlink:href="#c"/>
  <use x="531.277344" y="691.25" xlink:href="#k"/>
  <use x="546.273438" y="691.25" xlink:href="#j"/>
  <use x="577.417969" y="691.25" xlink:href="#b"/>
  <use x="608.734375" y="691.25" xlink:href="#d"/>
 </g>
</svg>
